<svg id="visual" viewBox="0 0 900 600" width="900" height="600" xmlns="http://www.w3.org/2000/svg" xmlns:xlink="http://www.w3.org/1999/xlink" version="1.1"><path d="M461 600L422 600L422 514L500 514L500 429L469 429L469 343L450 343L450 257L448 257L448 171L538 171L538 86L388 86L388 0L900 0L900 86L900 86L900 171L900 171L900 257L900 257L900 343L900 343L900 429L900 429L900 514L900 514L900 600L900 600Z" fill="#560090"></path><path d="M549 600L664 600L664 514L630 514L630 429L673 429L673 343L606 343L606 257L595 257L595 171L680 171L680 86L613 86L613 0L900 0L900 86L900 86L900 171L900 171L900 257L900 257L900 343L900 343L900 429L900 429L900 514L900 514L900 600L900 600Z" fill="#7700c6"></path><path d="M822 600L751 600L751 514L708 514L708 429L744 429L744 343L693 343L693 257L687 257L687 171L693 171L693 86L713 86L713 0L900 0L900 86L900 86L900 171L900 171L900 257L900 257L900 343L900 343L900 429L900 429L900 514L900 514L900 600L900 600Z" fill="black"></path></svg>