<svg viewBox="0 0 159 95" xmlns="http://www.w3.org/2000/svg">
<path d="M91.0113 41.063C91.8883 40.533 92.8327 40.2632 93.8542 40.2632C94.4806 40.2632 95.107 40.3692 95.7334 40.5908C96.3598 40.8125 96.9381 41.0919 97.4874 41.4485C97.8247 41.6605 98.1138 41.6123 98.3643 41.3232L100.899 38.0081C101.149 37.6516 101.111 37.3624 100.774 37.1312C99.8099 36.418 98.7498 35.8687 97.5645 35.4736C96.3887 35.0785 95.1456 34.8761 93.8542 34.8761C91.7245 34.8761 89.7971 35.3772 88.0528 36.3891C86.3085 37.401 84.94 38.7694 83.9282 40.5041C82.9163 42.2387 82.4152 44.1469 82.4152 46.2284C82.4152 48.31 82.9163 50.2278 83.9282 51.9721C84.94 53.7163 86.3181 55.0944 88.0528 56.1159C89.7971 57.1375 91.7245 57.6482 93.8542 57.6482C95.1649 57.6482 96.4177 57.4458 97.603 57.0507C98.7883 56.6556 99.8677 56.0774 100.822 55.3354C101.092 55.1233 101.111 54.8439 100.889 54.4873L98.3836 51.1722C98.2776 51.0084 98.1523 50.912 97.9885 50.8927C97.8247 50.8734 97.6705 50.9216 97.5066 51.0469C96.861 51.5095 96.2635 51.8275 95.7238 52.001C95.1841 52.1744 94.5577 52.2708 93.8446 52.2708C92.8423 52.2708 91.9076 52.001 91.0306 51.4709C90.1536 50.9409 89.4501 50.2181 88.9201 49.293C88.3901 48.3775 88.1203 47.3656 88.1203 46.2573C88.1203 45.1491 88.3804 44.1372 88.9008 43.2217C89.4212 42.3062 90.1247 41.5834 90.9921 41.0438L91.0113 41.063Z" fill="white"/>
<path d="M126.022 32.8813H129.954C130.292 32.8813 130.561 33.1511 130.561 33.4884V56.1159C130.561 56.4532 130.292 56.7231 129.954 56.7231H126.022C125.685 56.7231 125.415 56.4532 125.415 56.1159V33.4884C125.415 33.1511 125.685 32.8813 126.022 32.8813Z" fill="white"/>
<path d="M135.447 32.8813H139.379C139.716 32.8813 139.986 33.1511 139.986 33.4884V56.1159C139.986 56.4532 139.716 56.7231 139.379 56.7231H135.447C135.11 56.7231 134.84 56.4532 134.84 56.1159V33.4884C134.84 33.1511 135.11 32.8813 135.447 32.8813Z" fill="white"/>
<path d="M116.761 48.3197C116.453 48.3197 116.173 48.522 116.106 48.8208C116.01 49.2255 115.855 49.6014 115.653 49.9579C115.258 50.6614 114.718 51.2011 114.034 51.5866C113.34 51.9721 112.569 52.1648 111.721 52.1648C110.873 52.1648 110.112 51.9721 109.428 51.5866C108.753 51.2011 108.223 50.6614 107.837 49.9579C107.452 49.2641 107.259 48.4738 107.259 47.6065C107.259 46.7392 107.452 45.949 107.837 45.2358C108.223 44.5323 108.753 43.9734 109.447 43.5686C109.726 43.4048 110.015 43.2795 110.324 43.1832C110.613 43.0964 110.786 42.8073 110.786 42.5086V38.8465C110.786 38.4321 110.42 38.0948 110.015 38.1623C108.898 38.3454 107.857 38.7309 106.864 39.3091C105.409 40.1572 104.243 41.3136 103.385 42.7688C102.527 44.2239 102.094 45.814 102.094 47.5391C102.094 49.2641 102.518 50.8734 103.376 52.3383C104.224 53.7934 105.38 54.9499 106.835 55.8172C108.29 56.6749 109.89 57.1085 111.634 57.1085C112.627 57.1085 113.514 56.9447 114.304 56.6363C115.094 56.3183 115.798 55.875 116.405 55.3161L116.761 56.2219C116.848 56.3858 116.944 56.5111 117.05 56.5882C117.166 56.6652 117.301 56.7134 117.465 56.7134H120.5C120.703 56.7134 120.857 56.6556 120.953 56.5592C121.059 56.4532 121.108 56.3087 121.108 56.1063V48.9942C121.108 48.6184 120.799 48.31 120.423 48.31H116.761V48.3197Z" fill="white"/>
<path d="M119.768 37.9888H113.292C112.974 37.9888 112.714 38.249 112.714 38.5671V42.3351C112.714 42.6628 112.984 42.9326 113.311 42.9326H114.843C115.605 42.9326 116.222 43.5494 116.222 44.3107V45.8333C116.222 46.1513 116.482 46.4115 116.8 46.4115H120.568C120.886 46.4115 121.146 46.1513 121.146 45.8333V39.3669C121.146 38.6056 120.529 37.9888 119.768 37.9888Z" fill="white"/>
<path d="M47.25 19.0908C31.6766 19.0908 19.0522 31.7152 19.0522 47.2885V70.2052C19.0522 73.1252 21.4229 75.4862 24.3333 75.4862H47.25C62.8233 75.4862 75.4477 62.8618 75.4477 47.2885C75.4477 31.7152 62.8233 19.0908 47.25 19.0908Z" fill="white"/>
<path d="M42.6146 36.4084C40.8607 35.3965 38.9333 34.8954 36.8324 34.8954C34.7316 34.8954 32.7753 35.3965 31.031 36.4084C29.2867 37.4203 27.9182 38.7887 26.9064 40.5234C25.8945 42.258 25.3934 44.1661 25.3934 46.2477C25.3934 48.3293 25.8945 50.247 26.9064 51.9913C27.9182 53.7356 29.2963 55.1137 31.031 56.1352C32.7753 57.1567 34.7026 57.6675 36.8324 57.6675C38.9622 57.6675 40.8607 57.1567 42.6049 56.1352C44.3492 55.1137 45.7177 53.7356 46.7296 51.9913C47.7414 50.247 48.2426 48.3389 48.2426 46.2477C48.2426 44.1565 47.7414 42.258 46.7392 40.5234C45.7369 38.7887 44.3589 37.4203 42.6146 36.4084ZM41.7473 49.3123C41.2269 50.2278 40.533 50.9505 39.6657 51.4902C38.7983 52.0202 37.8539 52.2901 36.8324 52.2901C35.8109 52.2901 34.8954 52.0202 34.0184 51.4902C33.1415 50.9602 32.438 50.2374 31.9079 49.3123C31.3779 48.3871 31.1081 47.3849 31.1081 46.2766C31.1081 45.1684 31.3683 44.1565 31.8887 43.241C32.4091 42.3255 33.1125 41.6027 33.9799 41.063C34.8568 40.533 35.8013 40.2632 36.8228 40.2632C37.8443 40.2632 38.7598 40.533 39.6368 41.063C40.5137 41.5931 41.2076 42.3158 41.728 43.241C42.2484 44.1565 42.5086 45.1684 42.5086 46.2766C42.5086 47.3849 42.2484 48.3967 41.728 49.3123H41.7473Z" fill="#61941B"/>
<path d="M67.9116 43.4434C67.0924 42.0364 65.9745 40.9185 64.5483 40.0993C63.122 39.2802 61.5512 38.8658 59.8358 38.8658C58.1204 38.8658 56.5303 39.2802 55.1137 40.0993C53.6971 40.9185 52.5792 42.0364 51.7504 43.4434C50.9313 44.8504 50.5169 46.4019 50.5169 48.098V56.1449C50.5169 56.6652 50.9409 57.0796 51.4517 57.0796H54.2367C54.7571 57.0796 55.1715 56.6556 55.1715 56.1449V48.098C55.1715 47.2114 55.3835 46.3923 55.8076 45.6502C56.2316 44.9082 56.8002 44.3107 57.5133 43.877C58.2264 43.4434 58.9974 43.2313 59.8262 43.2313C60.6549 43.2313 61.4066 43.4434 62.1198 43.877C62.8329 44.3107 63.4015 44.8985 63.8255 45.6502C64.2495 46.3923 64.4519 47.2018 64.4615 48.098V56.1449C64.4615 56.6652 64.8856 57.0796 65.3963 57.0796H68.1814C68.7018 57.0796 69.1162 56.6556 69.1162 56.1449V48.098C69.1162 46.4019 68.7114 44.8504 67.8923 43.4434H67.9116Z" fill="#61941B"/>
</svg>
